<?xml version="1.0" encoding="UTF-8"?>
<!DOCTYPE svg PUBLIC "-//W3C//DTD SVG 1.1//EN" "http://www.w3.org/Graphics/SVG/1.1/DTD/svg11.dtd">
<svg xmlns="http://www.w3.org/2000/svg" version="1.1" width="102px" height="48px" style="shape-rendering:geometricPrecision; text-rendering:geometricPrecision; image-rendering:optimizeQuality; fill-rule:evenodd; clip-rule:evenodd" xmlns:xlink="http://www.w3.org/1999/xlink">
<g><path style="opacity:0.928" fill="#09080a" d="M 30.5,17.5 C 34.5,17.5 38.5,17.5 42.5,17.5C 47.1869,21.7215 48.6869,27.0549 47,33.5C 45.668,35.66 44.168,37.66 42.5,39.5C 38.5,39.5 34.5,39.5 30.5,39.5C 30.5,32.1667 30.5,24.8333 30.5,17.5 Z M 40.5,22.5 C 42.9819,24.5027 43.9819,27.1694 43.5,30.5C 42.3144,33.5992 39.9811,34.9325 36.5,34.5C 36.5,30.5 36.5,26.5 36.5,22.5C 37.8333,22.5 39.1667,22.5 40.5,22.5 Z"/></g>
<g><path style="opacity:0.893" fill="#0c0c0c" d="M 66.5,17.5 C 66.5,18.8333 66.5,20.1667 66.5,21.5C 62.8333,21.5 59.1667,21.5 55.5,21.5C 55.1568,23.4832 55.8235,24.8166 57.5,25.5C 60.1667,25.5 62.8333,25.5 65.5,25.5C 65.5,26.8333 65.5,28.1667 65.5,29.5C 62.1667,29.5 58.8333,29.5 55.5,29.5C 55.5,31.5 55.5,33.5 55.5,35.5C 59.5138,35.3345 63.5138,35.5012 67.5,36C 68.3366,37.0113 68.67,38.1779 68.5,39.5C 62.8333,39.5 57.1667,39.5 51.5,39.5C 51.5,32.1667 51.5,24.8333 51.5,17.5C 56.5,17.5 61.5,17.5 66.5,17.5 Z"/></g>
<g><path style="opacity:0.952" fill="#242424" d="M 75.5,19.5 C 75.0702,24.4125 76.2369,29.0791 79,33.5C 80.128,31.6547 80.628,29.6547 80.5,27.5C 80.9595,24.1226 81.6261,20.7893 82.5,17.5C 84.924,17.1924 87.2573,17.5258 89.5,18.5C 86.5621,25.3137 84.2288,32.3137 82.5,39.5C 80.1667,39.5 77.8333,39.5 75.5,39.5C 73.2946,32.2178 71.2946,24.8845 69.5,17.5C 72.0821,17.0254 74.0821,17.6921 75.5,19.5 Z"/></g>
<g><path style="opacity:0.118" fill="#8caecb" d="M 22.5,17.5 C 29.0857,16.2116 30.0857,18.2116 25.5,23.5C 25.5,22.8333 25.5,22.1667 25.5,21.5C 26.2341,20.2921 26.5674,18.9587 26.5,17.5C 25.1667,17.5 23.8333,17.5 22.5,17.5 Z"/></g>
<g><path style="opacity:0.416" fill="#5d5d5d" d="M 66.5,17.5 C 68.256,18.5521 68.9227,20.2188 68.5,22.5C 64.8333,22.5 61.1667,22.5 57.5,22.5C 57.5,23.5 57.5,24.5 57.5,25.5C 55.8235,24.8166 55.1568,23.4832 55.5,21.5C 59.1667,21.5 62.8333,21.5 66.5,21.5C 66.5,20.1667 66.5,18.8333 66.5,17.5 Z"/></g>
<g><path style="opacity:0.227" fill="#585858" d="M 42.5,17.5 C 47.9232,19.0127 50.2566,22.6794 49.5,28.5C 49.9047,34.0451 47.5714,37.7118 42.5,39.5C 44.168,37.66 45.668,35.66 47,33.5C 48.6869,27.0549 47.1869,21.7215 42.5,17.5 Z"/></g>
<g><path style="opacity:0.341" fill="#616161" d="M 40.5,22.5 C 39.1667,22.5 37.8333,22.5 36.5,22.5C 36.5,26.5 36.5,30.5 36.5,34.5C 39.9811,34.9325 42.3144,33.5992 43.5,30.5C 43.7135,32.1439 43.3802,33.6439 42.5,35C 39.9865,36.2525 37.3198,36.7525 34.5,36.5C 34.5,31.5 34.5,26.5 34.5,21.5C 36.7354,21.2053 38.7354,21.5386 40.5,22.5 Z"/></g>
<g><path style="opacity:0.737" fill="#565656" d="M 75.5,19.5 C 76.9558,22.6144 78.1225,25.9477 79,29.5C 79.2784,28.5842 79.7784,27.9175 80.5,27.5C 80.628,29.6547 80.128,31.6547 79,33.5C 76.2369,29.0791 75.0702,24.4125 75.5,19.5 Z"/></g>
<g><path style="opacity:0.024" fill="#e1d8dd" d="M 30.5,17.5 C 30.5,24.8333 30.5,32.1667 30.5,39.5C 30.1667,39.5 29.8333,39.5 29.5,39.5C 29.1667,38.8333 28.8333,38.1667 28.5,37.5C 29.1667,30.8333 29.8333,24.1667 30.5,17.5 Z"/></g>
<g><path style="opacity:1" fill="#1d4fa1" d="M 22.5,17.5 C 23.8333,17.5 25.1667,17.5 26.5,17.5C 26.5674,18.9587 26.2341,20.2921 25.5,21.5C 23.4197,23.3178 22.0864,25.6511 21.5,28.5C 23.9776,31.9592 25.9776,35.6258 27.5,39.5C 24.9179,39.9746 22.9179,39.3079 21.5,37.5C 21.1077,35.8211 20.6077,34.1545 20,32.5C 19,31.1667 18,31.1667 17,32.5C 16.6608,29.964 16.1608,27.464 15.5,25C 16.1301,23.6898 17.1301,22.8565 18.5,22.5C 19.593,20.6508 20.9263,18.9842 22.5,17.5 Z"/></g>
<g><path style="opacity:1" fill="#4369a9" d="M 18.5,22.5 C 17.1301,22.8565 16.1301,23.6898 15.5,25C 16.1608,27.464 16.6608,29.964 17,32.5C 18,31.1667 19,31.1667 20,32.5C 20.6077,34.1545 21.1077,35.8211 21.5,37.5C 20.2101,36.9423 19.3768,35.9423 19,34.5C 16.8505,39.0881 13.3505,40.4215 8.5,38.5C 11.116,35.3763 13.116,31.8763 14.5,28C 12.7134,24.928 11.0467,21.7614 9.5,18.5C 14.3268,16.2497 17.3268,17.5831 18.5,22.5 Z"/></g>
<g><path style="opacity:0.255" fill="#525353" d="M 65.5,25.5 C 67.256,26.5521 67.9227,28.2188 67.5,30.5C 64.1667,30.5 60.8333,30.5 57.5,30.5C 57.5,31.8333 57.5,33.1667 57.5,34.5C 61.1817,34.3347 64.8484,34.5014 68.5,35C 69.8009,36.6155 69.8009,38.1155 68.5,39.5C 68.67,38.1779 68.3366,37.0113 67.5,36C 63.5138,35.5012 59.5138,35.3345 55.5,35.5C 55.5,33.5 55.5,31.5 55.5,29.5C 58.8333,29.5 62.1667,29.5 65.5,29.5C 65.5,28.1667 65.5,26.8333 65.5,25.5 Z"/></g>
<g><path style="opacity:0.004" fill="#fefffe" d="M 1.5,37.5 C 2.83333,38.1667 2.83333,38.1667 1.5,37.5 Z"/></g>
<g><path style="opacity:0.173" fill="#6c8ab9" d="M 25.5,21.5 C 25.5,22.1667 25.5,22.8333 25.5,23.5C 24.8825,25.2292 23.8825,26.7292 22.5,28C 25.1194,30.7839 27.1194,33.9506 28.5,37.5C 28.8333,38.1667 29.1667,38.8333 29.5,39.5C 28.8333,39.5 28.1667,39.5 27.5,39.5C 25.9776,35.6258 23.9776,31.9592 21.5,28.5C 22.0864,25.6511 23.4197,23.3178 25.5,21.5 Z"/></g>
<g><path style="opacity:0.004" fill="#fefffe" d="M 83.5,45.5 C 84.8333,46.1667 84.8333,46.1667 83.5,45.5 Z"/></g>
</svg>
